# xmcd CD database file
#
# Track frame offsets:
#	182
#	25032
#	47520
#	70820
#	96265
#	115185
#	136675
#	159957
#
# Disc length: 2398 seconds
#
# Revision: 0
# Processed by: cddbd v1.5.2PL0 Copyright (c) Steve Scherf et al.
# Submitted via: CDex 1.70beta2
#
DISCID=59095c08
DTITLE=Orquesta El Equipo - Bailando Contigo
DYEAR=1991
DGENRE=Salsa
TTITLE0=Se Fue Mi Negra
TTITLE1=Como Una Estrella
TTITLE2=Bailando Apretao
TTITLE3=Mentiroso
TTITLE4=Reconciliación
TTITLE5=Miami
TTITLE6=Soñando Contigo
TTITLE7=Cogio Carretera
EXTD=YEAR: 1991
EXTT0=
EXTT1=
EXTT2=
EXTT3=
EXTT4=
EXTT5=
EXTT6=
EXTT7=
PLAYORDER=
